<?xml version="1.0" encoding="UTF-8" standalone="no"?>
<!DOCTYPE svg PUBLIC "-//W3C//DTD SVG 1.1//EN"
 "http://www.w3.org/Graphics/SVG/1.1/DTD/svg11.dtd">
<!-- Generated by graphviz version 2.49.3 (20211023.0002)
 -->
<!-- Title: Tree Pages: 1 -->
<svg width="695pt" height="479pt"
 viewBox="0.00 0.00 695.31 479.00" xmlns="http://www.w3.org/2000/svg" xmlns:xlink="http://www.w3.org/1999/xlink">
<g id="graph0" class="graph" transform="scale(1 1) rotate(0) translate(4 475)">
<title>Tree</title>
<polygon fill="white" stroke="transparent" points="-4,4 -4,-475 691.31,-475 691.31,4 -4,4"/>
<!-- 0 -->
<g id="node1" class="node">
<title>0</title>
<polygon fill="#7fb3d5" stroke="black" points="282.54,-445.54 282.54,-460.46 261.06,-471 230.69,-471 209.21,-460.46 209.21,-445.54 230.69,-435 261.06,-435 282.54,-445.54"/>
<text text-anchor="middle" x="245.88" y="-449.3" font-family="Times New Roman,serif" font-size="14.00">animal</text>
</g>
<!-- 1 -->
<g id="node2" class="node">
<title>1</title>
<polygon fill="#7fb3d5" stroke="black" points="212.25,-358.54 212.25,-373.46 196.22,-384 173.54,-384 157.51,-373.46 157.51,-358.54 173.54,-348 196.22,-348 212.25,-358.54"/>
<text text-anchor="middle" x="184.88" y="-362.3" font-family="Times New Roman,serif" font-size="14.00">nice</text>
</g>
<!-- 0&#45;&gt;1 -->
<g id="edge1" class="edge">
<title>0&#45;&gt;1</title>
<path fill="none" stroke="black" d="M233.53,-434.8C224.8,-422.62 212.93,-406.09 203.1,-392.4"/>
<polygon fill="black" stroke="black" points="205.67,-389.97 197,-383.89 199.98,-394.05 205.67,-389.97"/>
<text text-anchor="middle" x="229.38" y="-405.8" font-family="Times New Roman,serif" font-size="14.00">yes</text>
</g>
<!-- 6 -->
<g id="node7" class="node">
<title>6</title>
<polygon fill="#7fb3d5" stroke="black" points="366.16,-358.54 366.16,-373.46 332.02,-384 283.74,-384 249.6,-373.46 249.6,-358.54 283.74,-348 332.02,-348 366.16,-358.54"/>
<text text-anchor="middle" x="307.88" y="-362.3" font-family="Times New Roman,serif" font-size="14.00">vedet algem</text>
</g>
<!-- 0&#45;&gt;6 -->
<g id="edge6" class="edge">
<title>0&#45;&gt;6</title>
<path fill="none" stroke="black" d="M258.42,-434.8C267.33,-422.59 279.44,-405.99 289.44,-392.28"/>
<polygon fill="black" stroke="black" points="292.28,-394.32 295.35,-384.18 286.63,-390.19 292.28,-394.32"/>
<text text-anchor="middle" x="288.38" y="-405.8" font-family="Times New Roman,serif" font-size="14.00">no</text>
</g>
<!-- 2 -->
<g id="node3" class="node">
<title>2</title>
<polygon fill="#7fb3d5" stroke="black" points="113.86,-271.54 113.86,-286.46 91.61,-297 60.15,-297 37.9,-286.46 37.9,-271.54 60.15,-261 91.61,-261 113.86,-271.54"/>
<text text-anchor="middle" x="75.88" y="-275.3" font-family="Times New Roman,serif" font-size="14.00">my cat</text>
</g>
<!-- 1&#45;&gt;2 -->
<g id="edge2" class="edge">
<title>1&#45;&gt;2</title>
<path fill="none" stroke="black" d="M167.85,-351.72C150.69,-338.34 123.93,-317.48 103.7,-301.69"/>
<polygon fill="black" stroke="black" points="105.78,-298.88 95.74,-295.49 101.48,-304.4 105.78,-298.88"/>
<text text-anchor="middle" x="147.38" y="-318.8" font-family="Times New Roman,serif" font-size="14.00">yes</text>
</g>
<!-- 5 -->
<g id="node6" class="node">
<title>5</title>
<polygon fill="#76d7c4" stroke="black" points="238.31,-271.54 238.31,-286.46 207.01,-297 162.75,-297 131.45,-286.46 131.45,-271.54 162.75,-261 207.01,-261 238.31,-271.54"/>
<text text-anchor="middle" x="184.88" y="-275.3" font-family="Times New Roman,serif" font-size="14.00">cockroach</text>
</g>
<!-- 1&#45;&gt;5 -->
<g id="edge5" class="edge">
<title>1&#45;&gt;5</title>
<path fill="none" stroke="black" d="M184.88,-347.8C184.88,-336.16 184.88,-320.55 184.88,-307.24"/>
<polygon fill="black" stroke="black" points="188.38,-307.18 184.88,-297.18 181.38,-307.18 188.38,-307.18"/>
<text text-anchor="middle" x="192.38" y="-318.8" font-family="Times New Roman,serif" font-size="14.00">no</text>
</g>
<!-- 3 -->
<g id="node4" class="node">
<title>3</title>
<polygon fill="#76d7c4" stroke="black" points="71.63,-184.54 71.63,-199.46 50.69,-210 21.07,-210 0.12,-199.46 0.12,-184.54 21.07,-174 50.69,-174 71.63,-184.54"/>
<text text-anchor="middle" x="35.88" y="-188.3" font-family="Times New Roman,serif" font-size="14.00">plotva</text>
</g>
<!-- 2&#45;&gt;3 -->
<g id="edge3" class="edge">
<title>2&#45;&gt;3</title>
<path fill="none" stroke="black" d="M67.78,-260.8C62.2,-248.93 54.67,-232.93 48.32,-219.45"/>
<polygon fill="black" stroke="black" points="51.39,-217.73 43.96,-210.18 45.05,-220.71 51.39,-217.73"/>
<text text-anchor="middle" x="68.38" y="-231.8" font-family="Times New Roman,serif" font-size="14.00">yes</text>
</g>
<!-- 4 -->
<g id="node5" class="node">
<title>4</title>
<polygon fill="#76d7c4" stroke="black" points="143.88,-184.54 143.88,-199.46 128.06,-210 105.69,-210 89.88,-199.46 89.88,-184.54 105.69,-174 128.06,-174 143.88,-184.54"/>
<text text-anchor="middle" x="116.88" y="-188.3" font-family="Times New Roman,serif" font-size="14.00">1.5</text>
</g>
<!-- 2&#45;&gt;4 -->
<g id="edge4" class="edge">
<title>2&#45;&gt;4</title>
<path fill="none" stroke="black" d="M84.18,-260.8C89.9,-248.93 97.62,-232.93 104.12,-219.45"/>
<polygon fill="black" stroke="black" points="107.4,-220.7 108.59,-210.18 101.1,-217.66 107.4,-220.7"/>
<text text-anchor="middle" x="106.38" y="-231.8" font-family="Times New Roman,serif" font-size="14.00">no</text>
</g>
<!-- 7 -->
<g id="node8" class="node">
<title>7</title>
<polygon fill="#76d7c4" stroke="black" points="359.09,-271.54 359.09,-286.46 329.09,-297 286.67,-297 256.67,-286.46 256.67,-271.54 286.67,-261 329.09,-261 359.09,-271.54"/>
<text text-anchor="middle" x="307.88" y="-275.3" font-family="Times New Roman,serif" font-size="14.00">bogdanov</text>
</g>
<!-- 6&#45;&gt;7 -->
<g id="edge7" class="edge">
<title>6&#45;&gt;7</title>
<path fill="none" stroke="black" d="M307.88,-347.8C307.88,-336.16 307.88,-320.55 307.88,-307.24"/>
<polygon fill="black" stroke="black" points="311.38,-307.18 307.88,-297.18 304.38,-307.18 311.38,-307.18"/>
<text text-anchor="middle" x="317.38" y="-318.8" font-family="Times New Roman,serif" font-size="14.00">yes</text>
</g>
<!-- 8 -->
<g id="node9" class="node">
<title>8</title>
<polygon fill="#7fb3d5" stroke="black" points="457.08,-271.54 457.08,-286.46 433.53,-297 400.23,-297 376.68,-286.46 376.68,-271.54 400.23,-261 433.53,-261 457.08,-271.54"/>
<text text-anchor="middle" x="416.88" y="-275.3" font-family="Times New Roman,serif" font-size="14.00">woman</text>
</g>
<!-- 6&#45;&gt;8 -->
<g id="edge8" class="edge">
<title>6&#45;&gt;8</title>
<path fill="none" stroke="black" d="M329.94,-347.8C346.87,-334.59 370.39,-316.25 388.69,-301.98"/>
<polygon fill="black" stroke="black" points="390.96,-304.65 396.69,-295.74 386.65,-299.13 390.96,-304.65"/>
<text text-anchor="middle" x="377.38" y="-318.8" font-family="Times New Roman,serif" font-size="14.00">no</text>
</g>
<!-- 9 -->
<g id="node10" class="node">
<title>9</title>
<polygon fill="#76d7c4" stroke="black" points="417.39,-184.54 417.39,-199.46 393.07,-210 358.68,-210 334.37,-199.46 334.37,-184.54 358.68,-174 393.07,-174 417.39,-184.54"/>
<text text-anchor="middle" x="375.88" y="-188.3" font-family="Times New Roman,serif" font-size="14.00">ivanova</text>
</g>
<!-- 8&#45;&gt;9 -->
<g id="edge9" class="edge">
<title>8&#45;&gt;9</title>
<path fill="none" stroke="black" d="M408.58,-260.8C402.86,-248.93 395.14,-232.93 388.64,-219.45"/>
<polygon fill="black" stroke="black" points="391.66,-217.66 384.16,-210.18 385.35,-220.7 391.66,-217.66"/>
<text text-anchor="middle" x="408.38" y="-231.8" font-family="Times New Roman,serif" font-size="14.00">yes</text>
</g>
<!-- 10 -->
<g id="node11" class="node">
<title>10</title>
<polygon fill="#7fb3d5" stroke="black" points="558.69,-184.54 558.69,-199.46 522.48,-210 471.27,-210 435.06,-199.46 435.06,-184.54 471.27,-174 522.48,-174 558.69,-184.54"/>
<text text-anchor="middle" x="496.88" y="-188.3" font-family="Times New Roman,serif" font-size="14.00">vedet matlog</text>
</g>
<!-- 8&#45;&gt;10 -->
<g id="edge10" class="edge">
<title>8&#45;&gt;10</title>
<path fill="none" stroke="black" d="M433.07,-260.8C444.78,-248.36 460.77,-231.36 473.82,-217.5"/>
<polygon fill="black" stroke="black" points="476.41,-219.86 480.71,-210.18 471.31,-215.06 476.41,-219.86"/>
<text text-anchor="middle" x="469.38" y="-231.8" font-family="Times New Roman,serif" font-size="14.00">no</text>
</g>
<!-- 11 -->
<g id="node12" class="node">
<title>11</title>
<polygon fill="#76d7c4" stroke="black" points="500.24,-97.54 500.24,-112.46 473.08,-123 434.67,-123 407.52,-112.46 407.52,-97.54 434.67,-87 473.08,-87 500.24,-97.54"/>
<text text-anchor="middle" x="453.88" y="-101.3" font-family="Times New Roman,serif" font-size="14.00">Dashkov</text>
</g>
<!-- 10&#45;&gt;11 -->
<g id="edge11" class="edge">
<title>10&#45;&gt;11</title>
<path fill="none" stroke="black" d="M488.18,-173.8C482.17,-161.93 474.08,-145.93 467.26,-132.45"/>
<polygon fill="black" stroke="black" points="470.2,-130.52 462.57,-123.18 463.96,-133.68 470.2,-130.52"/>
<text text-anchor="middle" x="488.38" y="-144.8" font-family="Times New Roman,serif" font-size="14.00">yes</text>
</g>
<!-- 12 -->
<g id="node13" class="node">
<title>12</title>
<polygon fill="#7fb3d5" stroke="black" points="649.23,-97.54 649.23,-112.46 610.95,-123 556.81,-123 518.53,-112.46 518.53,-97.54 556.81,-87 610.95,-87 649.23,-97.54"/>
<text text-anchor="middle" x="583.88" y="-101.3" font-family="Times New Roman,serif" font-size="14.00">vedet physics</text>
</g>
<!-- 10&#45;&gt;12 -->
<g id="edge12" class="edge">
<title>10&#45;&gt;12</title>
<path fill="none" stroke="black" d="M514.48,-173.8C527.22,-161.36 544.61,-144.36 558.8,-130.5"/>
<polygon fill="black" stroke="black" points="561.59,-132.67 566.3,-123.18 556.7,-127.66 561.59,-132.67"/>
<text text-anchor="middle" x="553.38" y="-144.8" font-family="Times New Roman,serif" font-size="14.00">no</text>
</g>
<!-- 13 -->
<g id="node14" class="node">
<title>13</title>
<polygon fill="#76d7c4" stroke="black" points="576.77,-10.54 576.77,-25.46 547.55,-36 506.21,-36 476.98,-25.46 476.98,-10.54 506.21,0 547.55,0 576.77,-10.54"/>
<text text-anchor="middle" x="526.88" y="-14.3" font-family="Times New Roman,serif" font-size="14.00">ovchinkin</text>
</g>
<!-- 12&#45;&gt;13 -->
<g id="edge13" class="edge">
<title>12&#45;&gt;13</title>
<path fill="none" stroke="black" d="M572.34,-86.8C564.23,-74.7 553.24,-58.3 544.09,-44.67"/>
<polygon fill="black" stroke="black" points="546.87,-42.53 538.4,-36.18 541.06,-46.43 546.87,-42.53"/>
<text text-anchor="middle" x="568.38" y="-57.8" font-family="Times New Roman,serif" font-size="14.00">yes</text>
</g>
<!-- 14 -->
<g id="node15" class="node">
<title>14</title>
<polygon fill="#76d7c4" stroke="black" points="687.24,-10.54 687.24,-25.46 660.08,-36 621.67,-36 594.52,-25.46 594.52,-10.54 621.67,0 660.08,0 687.24,-10.54"/>
<text text-anchor="middle" x="640.88" y="-14.3" font-family="Times New Roman,serif" font-size="14.00">lukashov</text>
</g>
<!-- 12&#45;&gt;14 -->
<g id="edge14" class="edge">
<title>12&#45;&gt;14</title>
<path fill="none" stroke="black" d="M595.41,-86.8C603.53,-74.7 614.52,-58.3 623.67,-44.67"/>
<polygon fill="black" stroke="black" points="626.7,-46.43 629.36,-36.18 620.88,-42.53 626.7,-46.43"/>
<text text-anchor="middle" x="622.38" y="-57.8" font-family="Times New Roman,serif" font-size="14.00">no</text>
</g>
</g>
</svg>
